<svg width="62" height="29" viewBox="0 0 62 29" fill="none" xmlns="http://www.w3.org/2000/svg">
<path fill-rule="evenodd" clip-rule="evenodd" d="M17.4197 0C17.4197 0 14.7976 0.0120692 12.9116 2.49791C11.2345 4.70844 11.6613 6.59903 11.6613 6.59903C11.6613 6.59903 13.9355 6.99255 15.936 4.58851C17.8096 2.33717 17.4197 0 17.4197 0ZM14.7357 28.1088C15.482 28.3876 16.2187 28.6628 17.0463 28.6628C20.6977 28.6628 23.4008 21.0537 23.4008 21.0537C23.4008 21.0537 19.5336 19.5564 19.5336 15.2118C19.5336 11.3605 22.6381 9.77343 22.6381 9.77343C22.6381 9.77343 21.051 6.9025 17.0162 6.9025C15.59 6.9025 14.3649 7.39628 13.4056 7.78293C12.7883 8.03171 12.2811 8.23614 11.9012 8.23614C11.4277 8.23614 10.8565 8.01609 10.1927 7.76037C9.27195 7.4057 8.17308 6.98239 6.90978 6.98239C3.56563 6.98239 0 9.9769 0 15.6852C0 21.4871 4.21243 28.7049 7.54662 28.7049C8.06521 28.7049 8.70762 28.4721 9.41986 28.214C10.3059 27.8929 11.2999 27.5326 12.2982 27.5326C13.1933 27.5326 13.9696 27.8226 14.7357 28.1088ZM35.2137 28.6666C36.3119 28.6666 37.3595 28.5133 38.3557 28.2068C39.352 27.9003 40.195 27.5937 40.8847 27.2872L39.8501 23.2255L39.8361 23.2314C39.5025 23.371 38.1103 23.9536 37.053 23.9536C35.9226 23.9536 35.1371 23.3884 35.1371 21.9994V12.1901H39.352V8.24342H35.1371V1.72946H30.0025V8.24342H27.3586V12.1901H30.0025V23.7237C30.0025 26.7891 31.8035 28.6666 35.2137 28.6666ZM48.9693 28.3218H54.5253L61.9206 8.24342H57.0926L51.958 24.1452L46.8618 8.24342H41.574L48.9693 28.3218Z" fill="white"/>
</svg>
