<svg width="56" height="27" viewBox="0 0 56 27" fill="none" xmlns="http://www.w3.org/2000/svg">
<path d="M0.258054 26.1707H4.84838V7.29943H0.258054V26.1707V26.1707ZM2.54401 4.82465C3.98195 4.82465 5.10648 3.75643 5.10648 2.42123C5.10648 1.06817 3.98195 0 2.54401 0C1.12453 0 0 1.06821 0 2.42123C0 3.75648 1.12453 4.82465 2.54401 4.82465ZM20.1316 0.0532785C12.3706 0.0532785 7.50358 5.16282 7.50358 13.3346C7.50358 21.5064 12.3702 26.5982 20.1316 26.5982C27.8742 26.5982 32.7413 21.5064 32.7413 13.3346C32.7413 5.16282 27.8747 0.0532785 20.1316 0.0532785V0.0532785ZM20.1316 3.97C24.8694 3.97 27.8926 7.60188 27.8926 13.3345C27.8926 19.0493 24.8693 22.6813 20.1316 22.6813C15.3755 22.6813 12.3706 19.0494 12.3706 13.3345C12.3706 7.60197 15.3756 3.97 20.1316 3.97ZM34.6776 18.9427C34.8804 23.6785 38.8992 26.5981 45.0196 26.5981C51.4535 26.5981 55.5093 23.5359 55.5093 18.6578C55.5093 14.8302 53.2233 12.676 47.8219 11.4832L44.7617 10.8067C41.4987 10.059 40.153 9.062 40.153 7.35289C40.153 5.21651 42.1809 3.79226 45.1857 3.79226C48.2275 3.79226 50.3105 5.23433 50.5318 7.63775H55.0668C54.9562 3.11572 51.0849 0.0534153 45.2227 0.0534153C39.434 0.0534153 35.3229 3.13336 35.3229 7.69107C35.3229 11.3585 37.6457 13.6374 42.5492 14.7235L45.9965 15.5068C49.3517 16.2724 50.7159 17.3405 50.7159 19.1921C50.7159 21.3285 48.4852 22.8595 45.2778 22.8595C42.0332 22.8595 39.5815 21.3107 39.2866 18.9428H34.6778L34.6776 18.9427Z" fill="white"/>
</svg>
