<svg width="77" height="25" viewBox="0 0 77 25" fill="none" xmlns="http://www.w3.org/2000/svg">
<path d="M12.3592 8.4725C12.3592 6.32079 10.6281 4.58796 8.5113 4.58796H6.60313V12.3227H8.5113C10.6281 12.3227 12.3592 10.5887 12.3592 8.4725ZM21.0393 23.892H14.0347L8.47348 16.1745H6.60313V23.8754H0.429932V0.740099H9.27343C14.3716 0.740099 18.5329 4.2069 18.5329 8.4725C18.5329 11.074 16.9376 13.3976 14.5097 14.8193L21.0393 23.892Z" fill="white"/>
<path d="M28.0015 9.86432C26.3712 9.86432 24.9845 12.0802 24.9845 14.8233C24.9845 17.5664 26.3712 19.7851 28.0015 19.7851C29.6696 19.7851 31.054 17.5664 31.054 14.8233C31.054 12.0802 29.6696 9.86432 28.0015 9.86432ZM37.5034 14.8233C37.5034 20.0636 33.2418 24.2599 28.0015 24.2599C22.7629 24.2599 18.5328 20.0636 18.5328 14.8233C18.5328 9.58698 22.7629 5.38843 28.0015 5.38843C33.2418 5.38843 37.5034 9.58698 37.5034 14.8233Z" fill="white"/>
<path d="M51.9867 5.77238L44.8754 12.8825V5.74889H38.7034V23.8788H44.8754V16.5246L52.2995 23.8788H60.068L50.6338 14.4434L58.4481 6.63192V17.391C58.4481 20.9633 60.5964 24.2599 66.0063 24.2599C68.5746 24.2599 70.9314 22.8033 72.0769 21.4853L74.8521 23.8788H76.1695V5.77238H69.9974V15.2055V17.4953C69.3023 18.7084 68.3339 19.4711 66.8372 19.4711C65.3187 19.4711 64.6219 18.5709 64.6219 15.6914V14.9316V5.77238H51.9867Z" fill="white"/>
</svg>
