<svg width="104" height="27" viewBox="0 0 104 27" fill="none" xmlns="http://www.w3.org/2000/svg">
<path d="M78.0261 5.88116H81.0611L80.4812 7.68163H78.0261V17.7564H75.7827V7.68163H74.1953V5.88116H75.7827C75.7827 5.15874 75.7827 4.451 75.7827 3.72787C75.7827 2.29141 76.3598 1.26088 77.2282 0.641855C78.3971 -0.202138 80.2975 -0.153244 81.5013 0.437132L81.0353 2.22853C79.6945 1.71571 78.0261 1.70802 78.0261 3.90114C78.0261 4.56069 78.0261 5.22162 78.0261 5.88116ZM98.4566 5.62895C101.709 5.62895 103.372 8.11551 103.386 11.4894C103.387 11.9128 103.382 11.8583 103.382 12.2796C100.857 12.2796 98.2924 12.2796 95.7681 12.2796C95.8925 13.4275 96.1335 14.3644 96.8615 15.068C98.094 16.262 99.9741 16.5275 102.458 15.2964L103.124 16.8419C101.273 18.0758 97.7866 18.4579 95.7458 16.8796C94.3973 15.9141 93.5296 14.0326 93.5296 11.7633C93.5296 7.93666 95.6598 5.62895 98.4566 5.62895ZM98.4804 7.3819C100.188 7.3819 101.103 9.03216 101.103 10.6146L95.7842 10.6279C95.7842 8.79602 96.974 7.3819 98.4804 7.3819ZM87.1962 5.90912H89.0812L89.3103 7.37423C90.8362 5.61637 92.6626 5.2321 94.0473 5.9671L93.2872 7.94014C91.9017 7.17999 90.6846 7.87656 89.4137 9.16771V17.7564H87.1962V5.90912ZM82.9839 5.90912H85.2071V17.7564H82.9839V5.90912ZM84.0962 0.632065C84.8968 0.632065 85.5459 1.27974 85.5459 2.07832C85.5459 2.87621 84.8968 3.52387 84.0962 3.52387C83.2955 3.52387 82.6464 2.87621 82.6464 2.07832C82.6464 1.27974 83.2955 0.632065 84.0962 0.632065Z" fill="white"/>
<path d="M101.013 10.7162H95.9219C95.9219 10.4483 96.1898 7.7688 98.6013 7.7688C100.531 7.7688 101.013 9.73374 101.013 10.7162Z" fill="#24272C"/>
<path fill-rule="evenodd" clip-rule="evenodd" d="M43.4001 22.0962C39.336 25.0956 33.4434 26.6907 28.369 26.6907C21.2579 26.6907 14.8539 24.0623 10.0079 19.6858C9.62785 19.3428 9.9667 18.8733 10.4243 19.1394C15.6525 22.1815 22.1187 24.0141 28.7965 24.0141C33.3009 24.0141 38.2523 23.0792 42.8091 21.146C43.4959 20.8547 44.0723 21.5995 43.4001 22.0962" fill="white"/>
<path fill-rule="evenodd" clip-rule="evenodd" d="M45.0911 20.1637C44.5706 19.4978 41.655 19.8479 40.3443 20.0051C39.9475 20.0526 39.886 19.706 40.2437 19.4545C42.5703 17.821 46.3822 18.2926 46.8252 18.8397C47.2716 19.3909 46.7078 23.2141 44.528 25.0376C44.1926 25.3178 43.8733 25.1682 44.0221 24.7979C44.5126 23.5725 45.6116 20.8295 45.0911 20.1637Z" fill="white"/>
<path fill-rule="evenodd" clip-rule="evenodd" d="M40.4372 7.90979V6.32172C40.4386 6.07998 40.6202 5.91928 40.8396 5.91998L47.9563 5.91928C48.184 5.91928 48.3671 6.08487 48.3671 6.31962V7.68133C48.3643 7.90979 48.1722 8.20813 47.8312 8.68113L44.1443 13.9442C45.5123 13.9121 46.9607 14.1175 48.2036 14.8162C48.4838 14.974 48.5592 15.2067 48.5816 15.4359V17.1301C48.5816 17.3635 48.3259 17.6339 48.0569 17.4927C45.8665 16.3455 42.9601 16.2205 40.5378 17.5074C40.2905 17.6388 40.0312 17.3726 40.0312 17.1392V15.5288C40.0312 15.2703 40.0361 14.8301 40.296 14.4375L44.567 8.30943H40.8487C40.6216 8.30943 40.4386 8.14734 40.4372 7.90979" fill="white"/>
<path fill-rule="evenodd" clip-rule="evenodd" d="M14.4748 17.8274H12.3096C12.1035 17.8141 11.9386 17.6597 11.9219 17.4613L11.924 6.34964C11.924 6.12677 12.1105 5.95001 12.3418 5.95001L14.3581 5.94861C14.5691 5.95979 14.7382 6.11909 14.7515 6.3224V7.77284H14.792C15.3174 6.36991 16.3081 5.71526 17.6412 5.71526C18.9952 5.71526 19.8441 6.36991 20.4505 7.77284C20.9766 6.36991 22.1686 5.71526 23.4422 5.71526C24.3512 5.71526 25.3419 6.08905 25.9477 6.93094C26.6352 7.86646 26.494 9.22259 26.494 10.4152L26.4919 17.4278C26.4919 17.6492 26.3054 17.8274 26.0741 17.8274H23.9118C23.6945 17.8134 23.5233 17.6415 23.5233 17.4285V11.5373C23.5233 11.0706 23.5631 9.901 23.4618 9.45664C23.3004 8.70837 22.8155 8.49735 22.1895 8.49735C21.6634 8.49735 21.1178 8.84809 20.8949 9.40982C20.6734 9.97085 20.693 10.9057 20.693 11.5373V17.4278C20.693 17.6492 20.5064 17.8274 20.2759 17.8274H18.1135C17.8955 17.8134 17.7243 17.6415 17.7243 17.4285L17.7222 11.5373C17.7222 10.2985 17.9242 8.47501 16.3892 8.47501C14.8318 8.47501 14.8933 10.2517 14.8933 11.5373L14.8919 17.4278C14.8919 17.6492 14.7054 17.8274 14.4748 17.8274" fill="white"/>
<path fill-rule="evenodd" clip-rule="evenodd" d="M54.5157 7.98346C52.9192 7.98346 52.8179 10.1577 52.8179 11.5138C52.8179 12.87 52.7984 15.7694 54.4961 15.7694C56.1736 15.7694 56.254 13.431 56.254 12.0057C56.254 11.0702 56.2135 9.94741 55.9305 9.0587C55.6874 8.28667 55.2025 7.98346 54.5157 7.98346V7.98346ZM54.4961 5.71488C57.7093 5.71488 59.4469 8.47462 59.4469 11.9819C59.4469 15.3719 57.5277 18.0618 54.4961 18.0618C51.343 18.0618 49.625 15.302 49.625 11.8646C49.625 8.40406 51.3626 5.71488 54.4961 5.71488Z" fill="white"/>
<path fill-rule="evenodd" clip-rule="evenodd" d="M63.6119 17.8274H61.4545C61.2379 17.8134 61.0667 17.6415 61.0667 17.4285L61.0625 6.31263C61.0807 6.10862 61.2609 5.95001 61.4789 5.95001L63.4869 5.94861C63.6762 5.95909 63.832 6.08766 63.8718 6.26023V7.96008H63.9124C64.5188 6.43978 65.3677 5.71526 66.8629 5.71526C67.8333 5.71526 68.7835 6.066 69.3892 7.02457C69.9552 7.91328 69.9552 9.40983 69.9552 10.4851V17.4781C69.9314 17.6744 69.7547 17.8274 69.5402 17.8274H67.3701C67.1696 17.8148 67.0075 17.6674 66.9844 17.4781V11.4444C66.9844 10.2287 67.1263 8.45125 65.6304 8.45125C65.1043 8.45125 64.6201 8.80198 64.377 9.33925C64.0738 10.0177 64.0332 10.6954 64.0332 11.4444V17.4278C64.0298 17.6492 63.8425 17.8274 63.6119 17.8274" fill="white"/>
<path fill-rule="evenodd" clip-rule="evenodd" d="M36.945 17.7981C36.8018 17.9273 36.5957 17.9357 36.4336 17.8484C35.7154 17.251 35.5861 16.9751 35.1927 16.4063C34.0043 17.6164 33.1624 17.9797 31.6233 17.9797C29.8004 17.9797 28.3828 16.8549 28.3828 14.6052C28.3828 12.848 29.3351 11.6526 30.6912 11.0664C31.8664 10.5515 33.5069 10.4572 34.7631 10.3167V10.0352C34.7631 9.51955 34.8036 8.91101 34.4997 8.46526C34.2356 8.06701 33.7297 7.90282 33.284 7.90282C32.4581 7.90282 31.7239 8.32553 31.5436 9.20236C31.5059 9.39798 31.364 9.59151 31.1677 9.60129L29.0689 9.37353C28.8921 9.3337 28.6951 9.19187 28.7461 8.92079C29.2289 6.37554 31.5275 5.6063 33.5872 5.6063C34.6415 5.6063 36.0186 5.88717 36.8486 6.68435C37.9022 7.66877 37.8009 8.98088 37.8009 10.4111V13.7835C37.8009 14.7987 38.2222 15.2431 38.6183 15.7901C38.756 15.9871 38.7867 16.2212 38.6106 16.3651C38.1691 16.7361 37.3831 17.4187 36.9506 17.803L36.945 17.7981ZM34.7631 12.5196C34.7631 13.3636 34.7826 14.0658 34.3571 14.8169C34.0134 15.4254 33.4663 15.8006 32.8585 15.8006C32.0285 15.8006 31.5422 15.1676 31.5422 14.23C31.5422 12.3862 33.1967 12.0508 34.7631 12.0508V12.5196Z" fill="white"/>
<path fill-rule="evenodd" clip-rule="evenodd" d="M8.5622 17.7981C8.41897 17.9273 8.21216 17.9357 8.05077 17.8484C7.33114 17.251 7.20258 16.9751 6.80993 16.4063C5.6208 17.6164 4.77959 17.9797 3.24042 17.9797C1.41759 17.9797 0 16.8549 0 14.6052C0 12.848 0.951591 11.6526 2.30841 11.0664C3.48287 10.5515 5.12405 10.4572 6.37886 10.3167V10.0352C6.37886 9.51955 6.42008 8.91101 6.11616 8.46526C5.85276 8.06701 5.34621 7.90282 4.90116 7.90282C4.07533 7.90282 3.34104 8.32553 3.16078 9.20236C3.12375 9.39798 2.98123 9.59151 2.7849 9.60129L0.686098 9.37353C0.509335 9.3337 0.311603 9.19187 0.363305 8.92079C0.845387 6.37554 3.14401 5.6063 5.20509 5.6063C6.25798 5.6063 7.63576 5.88717 8.46578 6.68435C9.51867 7.66877 9.41807 8.98088 9.41807 10.4111V13.7835C9.41807 14.7987 9.83867 15.2431 10.2341 15.7901C10.3724 15.9871 10.4039 16.2212 10.2278 16.3651C9.78556 16.7361 8.99887 17.4187 8.5671 17.803L8.5622 17.7981ZM6.37886 12.5196C6.37886 13.3636 6.39982 14.0658 5.97433 14.8169C5.63058 15.4254 5.08283 15.8006 4.47568 15.8006C3.64566 15.8006 3.15868 15.1676 3.15868 14.23C3.15868 12.3862 4.81314 12.0508 6.37886 12.0508V12.5196" fill="white"/>
</svg>
